<svg width="32" height="32" viewBox="0 0 32 32" fill="none" xmlns="http://www.w3.org/2000/svg">
<path d="M17.9829 1.96866C11.3412 1.96866 5.93648 7.38123 5.93648 14.0229C5.93648 16.9838 7.01474 19.694 8.79379 21.794L2.27452 28.3134C2.17889 28.4058 2.10266 28.5164 2.05029 28.6386C1.99792 28.7609 1.97046 28.8923 1.96951 29.0253C1.96856 29.1583 1.99415 29.2901 2.04477 29.4131C2.0954 29.5361 2.17005 29.6477 2.26434 29.7415C2.35864 29.8352 2.4707 29.9093 2.59396 29.9592C2.71721 30.0092 2.84919 30.034 2.98218 30.0323C3.11516 30.0307 3.24647 30.0025 3.36842 29.9494C3.49038 29.8964 3.60053 29.8196 3.69243 29.7235L10.2078 23.2081C12.3082 24.9887 15.0206 26.0692 17.9829 26.0692C24.6246 26.0692 30.0293 20.6646 30.0293 14.0229C30.0293 7.38123 24.6246 1.96866 17.9829 1.96866ZM17.9829 4.07218C23.491 4.07218 27.9337 8.51482 27.9337 14.0229C27.9337 19.531 23.491 23.9717 17.9829 23.9717C12.4748 23.9717 8.0321 19.531 8.0321 14.0229C8.0321 8.51482 12.4748 4.07218 17.9829 4.07218Z" fill="#28262E"/>
</svg>
